<?xml version="1.0" standalone="no"?><!DOCTYPE svg PUBLIC "-//W3C//DTD SVG 1.1//EN" "http://www.w3.org/Graphics/SVG/1.1/DTD/svg11.dtd"><svg t="1668500893108" class="icon" viewBox="0 0 1024 1024" version="1.1" xmlns="http://www.w3.org/2000/svg" p-id="4954" xmlns:xlink="http://www.w3.org/1999/xlink" width="200" height="200"><path d="M517.425607 399.19377l27.46401 55.585403a28.267479 28.267479 0 0 0 21.036264 15.338942l61.355767 8.911195a7.304258 7.304258 0 0 1 4.017342 12.417238l-44.336846 43.241208a27.683138 27.683138 0 0 0-8.034684 24.761434l10.518131 61.063597a7.304258 7.304258 0 0 1-10.518131 7.742514l-54.854978-28.851819a27.829223 27.829223 0 0 0-26.003158 0l-54.854978 28.851819a7.304258 7.304258 0 0 1-10.518132-7.742514l10.518132-61.063597a27.683138 27.683138 0 0 0-8.034684-24.761434l-44.336846-43.241208a7.304258 7.304258 0 0 1 4.017342-12.417238l61.355767-8.911195a27.829223 27.829223 0 0 0 21.036263-15.338942l27.46401-55.585403a7.304258 7.304258 0 0 1 12.709409 0z" p-id="4955"></path><path d="M707.920656 72.109096v85.386776a184.140344 184.140344 0 0 0 8.838152 56.827127 155.507653 155.507653 0 0 0 28.632692 52.152403 146.08516 146.08516 0 0 0 113.946425 51.787189h91.522353V934.961095a18.771943 18.771943 0 0 1-19.940625 16.653708H92.317791a18.771943 18.771943 0 0 1-19.940624-16.653708V88.689762A18.771943 18.771943 0 0 1 92.317791 72.109096h615.675908M780.013683 0.016069H92.317791A90.353672 90.353672 0 0 0 0.28414 88.689762V934.961095a90.353672 90.353672 0 0 0 92.033651 88.673692h838.52882A90.353672 90.353672 0 0 0 1022.880262 934.961095V246.31565h-163.542337a80.346838 80.346838 0 0 1-79.2512-88.673693V0.016069z" p-id="4956"></path><path d="M509.975264 786.100317a273.909675 273.909675 0 1 1 193.63588-80.346839 272.083611 272.083611 0 0 1-193.63588 80.346839z m0-487.632265a213.941717 213.941717 0 1 0 151.198141 62.670533 211.823482 211.823482 0 0 0-151.198141-62.816618z" p-id="4957"></path><path d="M342.707756 891.062504l-17.311092-83.268541H214.2989l133.156623-140.314797 36.52129 34.403056-52.95587 55.877573h35.352609l5.697321 27.610096 63.400959-68.952196 36.52129 33.9648z m337.675848 1.022596L551.025194 751.332048l36.52129-33.964799 63.40096 68.952195 5.697321-27.610095h35.425651l-52.95587-55.877574 36.52129-34.403055 133.010538 140.314796H697.54861z m138.780902-890.462094a7.304258 7.304258 0 0 0-7.304258 7.304258v148.568608s-1.314766 68.367855 58.068851 68.367855h145.135607a7.304258 7.304258 0 0 0 5.478193-12.636366L824.861827 4.033411a7.304258 7.304258 0 0 0-5.624279-2.410405z" p-id="4958"></path></svg>