<?xml version="1.0" standalone="no"?><!DOCTYPE svg PUBLIC "-//W3C//DTD SVG 1.1//EN" "http://www.w3.org/Graphics/SVG/1.1/DTD/svg11.dtd"><svg t="1668500207040" class="icon" viewBox="0 0 1024 1024" version="1.1" xmlns="http://www.w3.org/2000/svg" p-id="2738" xmlns:xlink="http://www.w3.org/1999/xlink" width="200" height="200"><path d="M684.762831 174.989829C684.762831 78.745923 605.549909 0 508.736003 0c-96.807905 0-176.026828 78.746923-176.026828 174.989829 0 96.241906 79.211923 174.981829 176.033828 174.981829 96.807905 0 176.019828-78.739923 176.019828-174.982829zM508.736003 285.162722c-60.95494 0-110.827892-49.582952-110.827892-110.174893 0-60.596941 49.872951-110.179892 110.827892-110.179892 60.96194 0 110.834892 49.582952 110.834892 110.179892 0 60.597941-49.872951 110.174892-110.834892 110.174893z m485.557526 383.931625h-95.568907l-144.693858-265.969741c-4.587996-18.256982-26.407974-31.959969-49.379952-31.959968H325.857182c-22.972978 0-44.786956 13.702987-49.380952 31.966968L131.789371 669.089347H29.700471c-12.630988 0-22.965978 16.753984-22.965978 29.317971 0 12.557988 10.33499 35.792965 22.972978 35.792965h68.890933v266.953739c0 12.557988 10.33399 22.837978 22.972977 22.837978h780.859238c12.631988 0 22.965978-10.27999 22.965977-22.837978V734.200283h68.897933c12.630988 0 22.965978-23.234977 22.965978-35.792965 0-12.556988-10.33499-29.304971-22.972978-29.304971z m-649.249366-237.028769c1.144999-1.144999 3.442997-2.282998 6.891993-2.282998h326.642681c2.289998 0 4.593996 1.144999 6.890994 2.282998 0 1.145999 1.145999 1.145999 1.145998 2.283998L822.119697 669.082347h-90.717911L640.683874 511.169501c-3.442997-12.563988-35.637965-18.269982-47.117954-14.847986-11.485989 3.429997-24.891976 17.124983-21.449979 28.537972l84.978917 144.22186H373.420135l84.977917-144.21586c3.442997-12.549988-8.817991-25.107975-21.449979-28.536972-11.485989-3.421997-43.674957 2.289998-47.116954 14.840986L299.112208 669.089347h-90.717912L343.900164 434.357576c0-1.144999 1.144999-1.144999 1.144999-2.283998zM163.143341 959.244063V736.120281H860.809659v223.123782H163.136341z" p-id="2739"></path></svg>